# xmcd
# 
# Track frame offsets:
#     150
#     20560
#     41335
#     66342
#     87072
#     107990
#     132117
#     151122
#     167025
#     184585
#     203920
#     224247
# 
# Disc length: 3275
# 
# Revision: 6
# Processed by: cddbd v1.5.2PL0 Copyright (c) Steve Scherf et al.
# Submitted via: fre:ac v1.0.17
# 
DISCID=a50cc90c
DTITLE=Boo-Yaa T.R.I.B.E. - West Koasta Nostra
DYEAR=2003
DGENRE=G-Funk
TTITLE0=Boo Yaa Tribe, Mack 10 - Bang On
TTITLE1=Boo Yaa Tribe, Kurupt - On Me
TTITLE2=Boo Yaa Tribe, Knoc-Turn'al, Oyster Boy, King Lu - State Of Emergency
TTITLE3=Boo Yaa Tribe, Eminem, B-Real - 911
TTITLE4=Boo Yaa Tribe, Gail Gotti - Zodiak Kreep
TTITLE5=Boo Yaa Tribe, Short Khop - Heated
TTITLE6=Boo Yaa Tribe, Murda One - Tha Kalling
TTITLE7=Boo Yaa Tribe, WC - N Full Motion
TTITLE8=Boo Yaa Tribe - Legends
TTITLE9=Boo Yaa Tribe, Fiji - Carson City
TTITLE10=Boo Yaa Tribe, Crooked I, Eastwood, Kokane - Take Yo Fade
TTITLE11=Boo Yaa Tribe, Baby-Down - Beautiful Thang
EXTD=www.RapMusicGuide.com
EXTT0=
EXTT1=
EXTT2=
EXTT3=
EXTT4=
EXTT5=
EXTT6=
EXTT7=
EXTT8=
EXTT9=
EXTT10=
EXTT11=
PLAYORDER=
